<mxfile host="app.diagrams.net" modified="2020-04-04T19:59:03.054Z" agent="5.0 (Windows NT 6.1; Win64; x64) AppleWebKit/537.36 (KHTML, like Gecko) Chrome/80.0.3987.132 Safari/537.36" etag="sHrMmucJI5y6Kb8pAQTv" version="12.9.6" type="github">
  <diagram id="9UC1ZBUf9r_J20Ng0Syh" name="Page-1">
    <mxGraphModel dx="868" dy="401" grid="1" gridSize="10" guides="1" tooltips="1" connect="1" arrows="1" fold="1" page="1" pageScale="1" pageWidth="827" pageHeight="1169" math="0" shadow="0">
      <root>
        <mxCell id="0" />
        <mxCell id="1" parent="0" />
        <mxCell id="mh5o7TWo_xymcsIFWV8s-2" value="" style="rounded=0;whiteSpace=wrap;html=1;" parent="1" vertex="1">
          <mxGeometry x="80" y="50" width="680" height="390" as="geometry" />
        </mxCell>
        <mxCell id="mh5o7TWo_xymcsIFWV8s-3" value="" style="rounded=0;whiteSpace=wrap;html=1;" parent="1" vertex="1">
          <mxGeometry x="700" y="50" width="60" height="20" as="geometry" />
        </mxCell>
        <mxCell id="mh5o7TWo_xymcsIFWV8s-5" value="" style="whiteSpace=wrap;html=1;aspect=fixed;" parent="1" vertex="1">
          <mxGeometry x="720" y="50" width="20" height="20" as="geometry" />
        </mxCell>
        <mxCell id="mh5o7TWo_xymcsIFWV8s-6" value="" style="whiteSpace=wrap;html=1;aspect=fixed;" parent="1" vertex="1">
          <mxGeometry x="740" y="50" width="20" height="20" as="geometry" />
        </mxCell>
        <mxCell id="mh5o7TWo_xymcsIFWV8s-10" value="" style="whiteSpace=wrap;html=1;aspect=fixed;" parent="1" vertex="1">
          <mxGeometry x="725" y="55" width="10" height="10" as="geometry" />
        </mxCell>
        <mxCell id="mh5o7TWo_xymcsIFWV8s-14" value="X" style="text;html=1;strokeColor=none;fillColor=none;align=center;verticalAlign=middle;whiteSpace=wrap;rounded=0;" parent="1" vertex="1">
          <mxGeometry x="740" y="50" width="20" height="20" as="geometry" />
        </mxCell>
        <mxCell id="mh5o7TWo_xymcsIFWV8s-15" value="__" style="text;html=1;strokeColor=none;fillColor=none;align=center;verticalAlign=middle;whiteSpace=wrap;rounded=0;" parent="1" vertex="1">
          <mxGeometry x="700" y="50" width="20" height="10" as="geometry" />
        </mxCell>
        <mxCell id="mh5o7TWo_xymcsIFWV8s-16" value="" style="rounded=0;whiteSpace=wrap;html=1;" parent="1" vertex="1">
          <mxGeometry x="90" y="80" width="660" height="350" as="geometry" />
        </mxCell>
        <mxCell id="mh5o7TWo_xymcsIFWV8s-17" value="&lt;div&gt;Hello,&amp;nbsp;Lindsey!&lt;/div&gt;" style="text;html=1;strokeColor=none;fillColor=none;align=center;verticalAlign=middle;whiteSpace=wrap;rounded=0;fontSize=23;" parent="1" vertex="1">
          <mxGeometry x="234" y="80" width="360" height="60" as="geometry" />
        </mxCell>
        <mxCell id="aTJzjZ4bMfpqLngNovGI-1" value="&lt;font style=&quot;font-size: 22px&quot;&gt;BMI&lt;/font&gt;" style="rounded=0;whiteSpace=wrap;html=1;" parent="1" vertex="1">
          <mxGeometry x="460" y="140" width="130" height="130" as="geometry" />
        </mxCell>
        <mxCell id="aTJzjZ4bMfpqLngNovGI-2" value="" style="rounded=0;whiteSpace=wrap;html=1;" parent="1" vertex="1">
          <mxGeometry x="110" y="140" width="320" height="270" as="geometry" />
        </mxCell>
        <mxCell id="aTJzjZ4bMfpqLngNovGI-3" value="&lt;font style=&quot;font-size: 14px&quot;&gt;Lindsey Smith&lt;/font&gt;" style="text;html=1;strokeColor=none;fillColor=none;align=center;verticalAlign=middle;whiteSpace=wrap;rounded=0;fontSize=16;" parent="1" vertex="1">
          <mxGeometry x="124" y="190" width="110" height="30" as="geometry" />
        </mxCell>
        <mxCell id="aTJzjZ4bMfpqLngNovGI-4" value="&lt;font style=&quot;font-size: 17px&quot;&gt;Your Profile&lt;/font&gt;" style="text;html=1;strokeColor=none;fillColor=none;align=center;verticalAlign=middle;whiteSpace=wrap;rounded=0;fontSize=16;" parent="1" vertex="1">
          <mxGeometry x="205" y="140" width="130" height="40" as="geometry" />
        </mxCell>
        <mxCell id="aTJzjZ4bMfpqLngNovGI-5" value="&lt;font style=&quot;font-size: 14px&quot;&gt;Age&amp;nbsp; &amp;nbsp; &amp;nbsp; &amp;nbsp;25&lt;/font&gt;" style="text;html=1;strokeColor=none;fillColor=none;align=center;verticalAlign=middle;whiteSpace=wrap;rounded=0;fontSize=16;" parent="1" vertex="1">
          <mxGeometry x="124" y="230" width="110" height="30" as="geometry" />
        </mxCell>
        <mxCell id="aTJzjZ4bMfpqLngNovGI-6" value="&lt;font style=&quot;font-size: 14px&quot;&gt;Height 6&#39; 2&quot;&lt;/font&gt;" style="text;html=1;strokeColor=none;fillColor=none;align=center;verticalAlign=middle;whiteSpace=wrap;rounded=0;fontSize=16;" parent="1" vertex="1">
          <mxGeometry x="124" y="270" width="110" height="30" as="geometry" />
        </mxCell>
        <mxCell id="aTJzjZ4bMfpqLngNovGI-9" value="&lt;font style=&quot;font-size: 14px&quot;&gt;Weight&amp;nbsp; &amp;nbsp;160 lbs&lt;/font&gt;" style="text;html=1;strokeColor=none;fillColor=none;align=center;verticalAlign=middle;whiteSpace=wrap;rounded=0;fontSize=16;" parent="1" vertex="1">
          <mxGeometry x="124" y="310" width="110" height="30" as="geometry" />
        </mxCell>
        <mxCell id="aTJzjZ4bMfpqLngNovGI-10" value="&lt;font style=&quot;font-size: 14px&quot;&gt;Bust size&amp;nbsp; &amp;nbsp;38&quot;&lt;/font&gt;" style="text;html=1;strokeColor=none;fillColor=none;align=center;verticalAlign=middle;whiteSpace=wrap;rounded=0;fontSize=16;" parent="1" vertex="1">
          <mxGeometry x="284" y="190" width="110" height="30" as="geometry" />
        </mxCell>
        <mxCell id="aTJzjZ4bMfpqLngNovGI-11" value="&lt;font style=&quot;font-size: 14px&quot;&gt;Waist size&amp;nbsp; &amp;nbsp;30&quot;&lt;/font&gt;" style="text;html=1;strokeColor=none;fillColor=none;align=center;verticalAlign=middle;whiteSpace=wrap;rounded=0;fontSize=16;" parent="1" vertex="1">
          <mxGeometry x="284" y="230" width="110" height="30" as="geometry" />
        </mxCell>
        <mxCell id="aTJzjZ4bMfpqLngNovGI-12" value="&lt;font style=&quot;font-size: 14px&quot;&gt;Hight Hip size&amp;nbsp; &amp;nbsp;34&quot;&lt;/font&gt;" style="text;html=1;strokeColor=none;fillColor=none;align=center;verticalAlign=middle;whiteSpace=wrap;rounded=0;fontSize=16;" parent="1" vertex="1">
          <mxGeometry x="284" y="270" width="130" height="30" as="geometry" />
        </mxCell>
        <mxCell id="aTJzjZ4bMfpqLngNovGI-13" value="&lt;font style=&quot;font-size: 14px&quot;&gt;Hip size&amp;nbsp; &amp;nbsp;38&quot;&lt;/font&gt;" style="text;html=1;strokeColor=none;fillColor=none;align=center;verticalAlign=middle;whiteSpace=wrap;rounded=0;fontSize=16;" parent="1" vertex="1">
          <mxGeometry x="280" y="310" width="110" height="30" as="geometry" />
        </mxCell>
        <mxCell id="aTJzjZ4bMfpqLngNovGI-14" value="&lt;font style=&quot;font-size: 15px&quot;&gt;Edit Profile&lt;/font&gt;" style="rounded=0;whiteSpace=wrap;html=1;fontSize=16;" parent="1" vertex="1">
          <mxGeometry x="225" y="360" width="90" height="40" as="geometry" />
        </mxCell>
        <mxCell id="aTJzjZ4bMfpqLngNovGI-15" value="&lt;span style=&quot;font-size: 22px ; white-space: normal&quot;&gt;BMR&lt;/span&gt;" style="rounded=0;whiteSpace=wrap;html=1;" parent="1" vertex="1">
          <mxGeometry x="590" y="140" width="130" height="130" as="geometry" />
        </mxCell>
        <mxCell id="aTJzjZ4bMfpqLngNovGI-16" value="&lt;span style=&quot;font-size: 22px&quot;&gt;Body Type&lt;/span&gt;" style="rounded=0;whiteSpace=wrap;html=1;" parent="1" vertex="1">
          <mxGeometry x="460" y="270" width="130" height="130" as="geometry" />
        </mxCell>
        <mxCell id="aTJzjZ4bMfpqLngNovGI-17" value="&lt;span style=&quot;font-size: 22px ; white-space: normal&quot;&gt;Healthy Weight&lt;/span&gt;" style="rounded=0;whiteSpace=wrap;html=1;" parent="1" vertex="1">
          <mxGeometry x="590" y="270" width="130" height="130" as="geometry" />
        </mxCell>
      </root>
    </mxGraphModel>
  </diagram>
</mxfile>
